<mxfile host="Electron" agent="Mozilla/5.0 (Windows NT 10.0; Win64; x64) AppleWebKit/537.36 (KHTML, like Gecko) draw.io/22.1.18 Chrome/120.0.6099.199 Electron/28.1.2 Safari/537.36" modified="2025-01-08T19:33:57.675Z" version="22.1.18" etag="pviO6DKg2QslppBpm3Jq" type="device">
  <diagram name="DFD" id="9vH-_8HUJ6dNW-6lCzEg">
    <mxGraphModel dx="5945" dy="2943" grid="1" gridSize="10" guides="1" tooltips="1" connect="1" arrows="1" fold="1" page="1" pageScale="1" pageWidth="827" pageHeight="1169" math="0" shadow="0">
      <root>
        <mxCell id="LW2s9WkSSxJKJhXJ1fTc-0" />
        <mxCell id="LW2s9WkSSxJKJhXJ1fTc-1" parent="LW2s9WkSSxJKJhXJ1fTc-0" />
        <mxCell id="jnl5u2AOaFAPthQatXR9-5" value="" style="rounded=1;whiteSpace=wrap;html=1;arcSize=3;opacity=70;labelBackgroundColor=none;" parent="LW2s9WkSSxJKJhXJ1fTc-1" vertex="1">
          <mxGeometry x="-1640" y="-140" width="1580" height="379" as="geometry" />
        </mxCell>
        <mxCell id="jnl5u2AOaFAPthQatXR9-3" value="" style="rounded=1;whiteSpace=wrap;html=1;arcSize=3;opacity=70;labelBackgroundColor=none;" parent="LW2s9WkSSxJKJhXJ1fTc-1" vertex="1">
          <mxGeometry x="-1640" y="-770" width="1580" height="610" as="geometry" />
        </mxCell>
        <mxCell id="jnl5u2AOaFAPthQatXR9-1" value="" style="rounded=1;whiteSpace=wrap;html=1;arcSize=3;opacity=70;labelBackgroundColor=none;" parent="LW2s9WkSSxJKJhXJ1fTc-1" vertex="1">
          <mxGeometry x="-1640" y="-1100" width="1580" height="310" as="geometry" />
        </mxCell>
        <mxCell id="LW2s9WkSSxJKJhXJ1fTc-47" value="Учетные данные&amp;nbsp;пациента" style="edgeStyle=orthogonalEdgeStyle;rounded=1;orthogonalLoop=1;jettySize=auto;html=1;exitX=0.5;exitY=0;exitDx=0;exitDy=0;entryX=0;entryY=0.5;entryDx=0;entryDy=0;flowAnimation=0;labelBackgroundColor=none;fontColor=default;" parent="LW2s9WkSSxJKJhXJ1fTc-1" source="RAFy6ga0Xb_pRNfzBWMS-108" target="LW2s9WkSSxJKJhXJ1fTc-53" edge="1">
          <mxGeometry x="0.0072" y="10" relative="1" as="geometry">
            <mxPoint as="offset" />
          </mxGeometry>
        </mxCell>
        <mxCell id="LW2s9WkSSxJKJhXJ1fTc-52" value="1.0" style="swimlane;fontStyle=1;childLayout=stackLayout;horizontal=1;startSize=40;horizontalStack=0;resizeParent=1;resizeParentMax=0;resizeLast=0;collapsible=0;marginBottom=0;swimlaneFillColor=#8FBDFF;rounded=1;strokeWidth=2;labelBackgroundColor=none;" parent="LW2s9WkSSxJKJhXJ1fTc-1" vertex="1">
          <mxGeometry x="-1257.57" y="-1040" width="170" height="100" as="geometry" />
        </mxCell>
        <mxCell id="LW2s9WkSSxJKJhXJ1fTc-53" value="&lt;b&gt;Заказ медицинской услуги&lt;/b&gt;" style="rounded=1;whiteSpace=wrap;html=1;opacity=0;labelBackgroundColor=none;" parent="LW2s9WkSSxJKJhXJ1fTc-52" vertex="1">
          <mxGeometry y="40" width="170" height="60" as="geometry" />
        </mxCell>
        <mxCell id="LW2s9WkSSxJKJhXJ1fTc-54" style="edgeStyle=orthogonalEdgeStyle;rounded=1;orthogonalLoop=1;jettySize=auto;html=1;exitX=0.5;exitY=0;exitDx=0;exitDy=0;entryX=1;entryY=0.25;entryDx=0;entryDy=0;labelBackgroundColor=none;fontColor=default;" parent="LW2s9WkSSxJKJhXJ1fTc-1" source="LW2s9WkSSxJKJhXJ1fTc-59" target="LW2s9WkSSxJKJhXJ1fTc-67" edge="1">
          <mxGeometry relative="1" as="geometry" />
        </mxCell>
        <mxCell id="LW2s9WkSSxJKJhXJ1fTc-58" style="edgeStyle=orthogonalEdgeStyle;rounded=1;orthogonalLoop=1;jettySize=auto;html=1;exitX=0;exitY=0.5;exitDx=0;exitDy=0;entryX=1;entryY=0.25;entryDx=0;entryDy=0;labelBackgroundColor=none;fontColor=default;" parent="LW2s9WkSSxJKJhXJ1fTc-1" source="LW2s9WkSSxJKJhXJ1fTc-59" target="LW2s9WkSSxJKJhXJ1fTc-81" edge="1">
          <mxGeometry relative="1" as="geometry" />
        </mxCell>
        <mxCell id="tc6Am-N3KZkTbopPARd8-10" value="Результаты / комментарий" style="edgeLabel;html=1;align=center;verticalAlign=middle;resizable=0;points=[];" vertex="1" connectable="0" parent="LW2s9WkSSxJKJhXJ1fTc-58">
          <mxGeometry x="-0.2855" y="-2" relative="1" as="geometry">
            <mxPoint as="offset" />
          </mxGeometry>
        </mxCell>
        <mxCell id="LW2s9WkSSxJKJhXJ1fTc-59" value="&lt;b&gt;DOCTOR&lt;/b&gt;" style="html=1;dashed=0;whiteSpace=wrap;rounded=1;strokeWidth=2;labelBackgroundColor=none;" parent="LW2s9WkSSxJKJhXJ1fTc-1" vertex="1">
          <mxGeometry x="-420" y="-431" width="160" height="40" as="geometry" />
        </mxCell>
        <mxCell id="LW2s9WkSSxJKJhXJ1fTc-62" value="" style="group;labelBackgroundColor=none;rounded=1;" parent="LW2s9WkSSxJKJhXJ1fTc-1" vertex="1" connectable="0">
          <mxGeometry x="-976" y="-990" width="160" height="40" as="geometry" />
        </mxCell>
        <object label="customer_data" placeholders="1" id="LW2s9WkSSxJKJhXJ1fTc-63">
          <mxCell style="html=1;dashed=0;whiteSpace=wrap;shape=mxgraph.dfd.dataStoreID;align=center;spacingLeft=3;points=[[0,0],[0.5,0],[1,0],[0,0.5],[1,0.5],[0,1],[0.5,1],[1,1]];rounded=1;verticalAlign=middle;fontFamily=Helvetica;fontSize=12;strokeWidth=2;labelBackgroundColor=none;" parent="LW2s9WkSSxJKJhXJ1fTc-62" vertex="1">
            <mxGeometry width="160" height="40" as="geometry" />
          </mxCell>
        </object>
        <mxCell id="LW2s9WkSSxJKJhXJ1fTc-64" value="&lt;b&gt;D&lt;/b&gt;" style="rounded=1;whiteSpace=wrap;html=1;fillColor=none;labelBackgroundColor=none;" parent="LW2s9WkSSxJKJhXJ1fTc-62" vertex="1">
          <mxGeometry width="30" height="40" as="geometry" />
        </mxCell>
        <mxCell id="LW2s9WkSSxJKJhXJ1fTc-66" value="2.0" style="swimlane;fontStyle=1;childLayout=stackLayout;horizontal=1;startSize=40;horizontalStack=0;resizeParent=1;resizeParentMax=0;resizeLast=0;collapsible=0;marginBottom=0;swimlaneFillColor=#8FBDFF;rounded=1;strokeWidth=2;labelBackgroundColor=none;" parent="LW2s9WkSSxJKJhXJ1fTc-1" vertex="1">
          <mxGeometry x="-690" y="-670" width="170" height="100" as="geometry" />
        </mxCell>
        <mxCell id="LW2s9WkSSxJKJhXJ1fTc-67" value="&lt;span style=&quot;text-wrap: nowrap;&quot;&gt;&lt;b style=&quot;&quot;&gt;&lt;font style=&quot;font-size: 12px;&quot;&gt;Оказание медицинской&lt;/font&gt;&lt;/b&gt;&lt;/span&gt;&lt;div&gt;&lt;span style=&quot;text-wrap: nowrap;&quot;&gt;&lt;b style=&quot;&quot;&gt;&lt;font style=&quot;font-size: 12px;&quot;&gt;услуги&lt;/font&gt;&lt;/b&gt;&lt;/span&gt;&lt;/div&gt;" style="rounded=1;whiteSpace=wrap;html=1;opacity=0;align=center;verticalAlign=middle;fontFamily=Helvetica;fontSize=12;labelBackgroundColor=none;" parent="LW2s9WkSSxJKJhXJ1fTc-66" vertex="1">
          <mxGeometry y="40" width="170" height="60" as="geometry" />
        </mxCell>
        <mxCell id="LW2s9WkSSxJKJhXJ1fTc-68" value="" style="edgeStyle=orthogonalEdgeStyle;rounded=1;orthogonalLoop=1;jettySize=auto;html=1;exitX=1;exitY=0.5;exitDx=0;exitDy=0;entryX=0.5;entryY=0;entryDx=0;entryDy=0;labelBackgroundColor=none;fontColor=default;" parent="LW2s9WkSSxJKJhXJ1fTc-1" source="LW2s9WkSSxJKJhXJ1fTc-63" target="LW2s9WkSSxJKJhXJ1fTc-127" edge="1">
          <mxGeometry relative="1" as="geometry" />
        </mxCell>
        <mxCell id="LW2s9WkSSxJKJhXJ1fTc-80" value="2.1" style="swimlane;fontStyle=1;childLayout=stackLayout;horizontal=1;startSize=40;horizontalStack=0;resizeParent=1;resizeParentMax=0;resizeLast=0;collapsible=0;marginBottom=0;swimlaneFillColor=#8FBDFF;rounded=1;strokeWidth=2;labelBackgroundColor=none;" parent="LW2s9WkSSxJKJhXJ1fTc-1" vertex="1">
          <mxGeometry x="-1257.57" y="-466" width="170" height="100" as="geometry" />
        </mxCell>
        <mxCell id="LW2s9WkSSxJKJhXJ1fTc-81" value="&lt;span style=&quot;text-wrap: nowrap;&quot;&gt;&lt;b&gt;Передача результатов&lt;/b&gt;&lt;/span&gt;&lt;div&gt;&lt;span style=&quot;text-wrap: nowrap;&quot;&gt;&lt;b&gt;услуги&lt;/b&gt;&lt;/span&gt;&lt;/div&gt;" style="rounded=1;whiteSpace=wrap;html=1;opacity=0;align=center;verticalAlign=middle;fontFamily=Helvetica;fontSize=12;labelBackgroundColor=none;" parent="LW2s9WkSSxJKJhXJ1fTc-80" vertex="1">
          <mxGeometry y="40" width="170" height="60" as="geometry" />
        </mxCell>
        <mxCell id="LW2s9WkSSxJKJhXJ1fTc-82" style="edgeStyle=orthogonalEdgeStyle;rounded=1;orthogonalLoop=1;jettySize=auto;html=1;exitX=0;exitY=0.5;exitDx=0;exitDy=0;entryX=0.5;entryY=0;entryDx=0;entryDy=0;labelBackgroundColor=none;fontColor=default;" parent="LW2s9WkSSxJKJhXJ1fTc-1" source="LW2s9WkSSxJKJhXJ1fTc-96" target="LW2s9WkSSxJKJhXJ1fTc-80" edge="1">
          <mxGeometry relative="1" as="geometry" />
        </mxCell>
        <mxCell id="LW2s9WkSSxJKJhXJ1fTc-108" value="" style="group;labelBackgroundColor=none;rounded=1;" parent="LW2s9WkSSxJKJhXJ1fTc-1" vertex="1" connectable="0">
          <mxGeometry x="-976" y="129" width="160" height="40" as="geometry" />
        </mxCell>
        <object label="Finance-data" placeholders="1" id="LW2s9WkSSxJKJhXJ1fTc-109">
          <mxCell style="html=1;dashed=0;whiteSpace=wrap;shape=mxgraph.dfd.dataStoreID;align=center;spacingLeft=3;points=[[0,0],[0.5,0],[1,0],[0,0.5],[1,0.5],[0,1],[0.5,1],[1,1]];rounded=1;verticalAlign=middle;fontFamily=Helvetica;fontSize=12;strokeWidth=2;labelBackgroundColor=none;" parent="LW2s9WkSSxJKJhXJ1fTc-108" vertex="1">
            <mxGeometry width="160" height="40" as="geometry" />
          </mxCell>
        </object>
        <mxCell id="LW2s9WkSSxJKJhXJ1fTc-110" value="&lt;b&gt;D&lt;/b&gt;" style="rounded=1;whiteSpace=wrap;html=1;fillColor=none;labelBackgroundColor=none;" parent="LW2s9WkSSxJKJhXJ1fTc-108" vertex="1">
          <mxGeometry width="30" height="40" as="geometry" />
        </mxCell>
        <mxCell id="LW2s9WkSSxJKJhXJ1fTc-116" value="3.1" style="swimlane;fontStyle=1;childLayout=stackLayout;horizontal=1;startSize=40;horizontalStack=0;resizeParent=1;resizeParentMax=0;resizeLast=0;collapsible=0;marginBottom=0;swimlaneFillColor=#8FBDFF;rounded=1;strokeWidth=2;labelBackgroundColor=none;" parent="LW2s9WkSSxJKJhXJ1fTc-1" vertex="1">
          <mxGeometry x="-700" y="-66" width="170" height="100" as="geometry" />
        </mxCell>
        <mxCell id="LW2s9WkSSxJKJhXJ1fTc-117" value="&lt;span style=&quot;text-wrap: nowrap;&quot;&gt;&lt;b style=&quot;&quot;&gt;&lt;font style=&quot;font-size: 12px;&quot;&gt;Оказание финтех услуг&lt;/font&gt;&lt;/b&gt;&lt;/span&gt;" style="rounded=1;whiteSpace=wrap;html=1;opacity=0;align=center;verticalAlign=middle;fontFamily=Helvetica;fontSize=12;labelBackgroundColor=none;" parent="LW2s9WkSSxJKJhXJ1fTc-116" vertex="1">
          <mxGeometry y="40" width="170" height="60" as="geometry" />
        </mxCell>
        <mxCell id="LW2s9WkSSxJKJhXJ1fTc-118" style="edgeStyle=orthogonalEdgeStyle;rounded=1;orthogonalLoop=1;jettySize=auto;html=1;exitX=1;exitY=0.5;exitDx=0;exitDy=0;entryX=0;entryY=0.5;entryDx=0;entryDy=0;labelBackgroundColor=none;fontColor=default;" parent="LW2s9WkSSxJKJhXJ1fTc-1" source="tc6Am-N3KZkTbopPARd8-16" target="LW2s9WkSSxJKJhXJ1fTc-116" edge="1">
          <mxGeometry relative="1" as="geometry" />
        </mxCell>
        <mxCell id="LW2s9WkSSxJKJhXJ1fTc-119" value="Данные клиента" style="edgeLabel;html=1;align=center;verticalAlign=middle;resizable=0;points=[];labelBackgroundColor=none;rounded=1;" parent="LW2s9WkSSxJKJhXJ1fTc-118" vertex="1" connectable="0">
          <mxGeometry x="0.1624" y="-2" relative="1" as="geometry">
            <mxPoint x="-4" y="-17" as="offset" />
          </mxGeometry>
        </mxCell>
        <mxCell id="LW2s9WkSSxJKJhXJ1fTc-122" value="&lt;b&gt;EMPLOYEE&lt;/b&gt;" style="html=1;dashed=0;whiteSpace=wrap;rounded=1;strokeWidth=2;labelBackgroundColor=none;" parent="LW2s9WkSSxJKJhXJ1fTc-1" vertex="1">
          <mxGeometry x="-420" y="129" width="160" height="40" as="geometry" />
        </mxCell>
        <mxCell id="LW2s9WkSSxJKJhXJ1fTc-123" style="edgeStyle=orthogonalEdgeStyle;rounded=1;orthogonalLoop=1;jettySize=auto;html=1;exitX=1;exitY=0.25;exitDx=0;exitDy=0;entryX=0.5;entryY=0;entryDx=0;entryDy=0;labelBackgroundColor=none;fontColor=default;" parent="LW2s9WkSSxJKJhXJ1fTc-1" source="LW2s9WkSSxJKJhXJ1fTc-117" target="LW2s9WkSSxJKJhXJ1fTc-122" edge="1">
          <mxGeometry relative="1" as="geometry" />
        </mxCell>
        <mxCell id="LW2s9WkSSxJKJhXJ1fTc-127" value="&lt;b&gt;EMPLOYEE&lt;/b&gt;" style="html=1;dashed=0;whiteSpace=wrap;rounded=1;strokeWidth=2;labelBackgroundColor=none;" parent="LW2s9WkSSxJKJhXJ1fTc-1" vertex="1">
          <mxGeometry x="-420" y="-890" width="160" height="40" as="geometry" />
        </mxCell>
        <mxCell id="qxSdvj8VyCYYRxK1N-Ad-7" value="&lt;b&gt;&lt;font style=&quot;font-size: 14px;&quot;&gt;Будущее 2.0. Data Flow Diagram&lt;/font&gt;&lt;/b&gt;" style="rounded=1;whiteSpace=wrap;html=1;labelBackgroundColor=none;" parent="LW2s9WkSSxJKJhXJ1fTc-1" vertex="1">
          <mxGeometry x="-1640" y="-1160" width="360" height="40" as="geometry" />
        </mxCell>
        <mxCell id="Dwi_SahnaFgLUBmUXzcb-34" value="" style="edgeStyle=orthogonalEdgeStyle;rounded=1;orthogonalLoop=1;jettySize=auto;html=1;exitX=1;exitY=0.5;exitDx=0;exitDy=0;entryX=0;entryY=0.5;entryDx=0;entryDy=0;labelBackgroundColor=none;fontColor=default;" parent="LW2s9WkSSxJKJhXJ1fTc-1" source="LW2s9WkSSxJKJhXJ1fTc-53" target="LW2s9WkSSxJKJhXJ1fTc-64" edge="1">
          <mxGeometry relative="1" as="geometry">
            <mxPoint x="-1088" y="-970" as="sourcePoint" />
            <mxPoint x="-1030" y="-970" as="targetPoint" />
          </mxGeometry>
        </mxCell>
        <mxCell id="Dwi_SahnaFgLUBmUXzcb-35" value="Учетные данные&amp;nbsp;&lt;span style=&quot;background-color: initial;&quot;&gt;пациента&lt;/span&gt;" style="edgeLabel;html=1;align=center;verticalAlign=middle;resizable=0;points=[];labelBackgroundColor=none;rounded=1;" parent="Dwi_SahnaFgLUBmUXzcb-34" vertex="1" connectable="0">
          <mxGeometry x="-0.3896" y="1" relative="1" as="geometry">
            <mxPoint x="397" y="-15" as="offset" />
          </mxGeometry>
        </mxCell>
        <mxCell id="Dwi_SahnaFgLUBmUXzcb-39" value="" style="edgeStyle=orthogonalEdgeStyle;rounded=1;orthogonalLoop=1;jettySize=auto;html=1;exitX=0;exitY=0.25;exitDx=0;exitDy=0;entryX=1;entryY=0.5;entryDx=0;entryDy=0;labelBackgroundColor=none;fontColor=default;" parent="LW2s9WkSSxJKJhXJ1fTc-1" source="LW2s9WkSSxJKJhXJ1fTc-67" target="LW2s9WkSSxJKJhXJ1fTc-95" edge="1">
          <mxGeometry relative="1" as="geometry">
            <mxPoint x="-690" y="-600" as="sourcePoint" />
            <mxPoint x="-760" y="-600.0000000000002" as="targetPoint" />
          </mxGeometry>
        </mxCell>
        <mxCell id="Dwi_SahnaFgLUBmUXzcb-47" value="" style="edgeStyle=orthogonalEdgeStyle;rounded=1;orthogonalLoop=1;jettySize=auto;html=1;exitX=1;exitY=0.5;exitDx=0;exitDy=0;entryX=0;entryY=0.5;entryDx=0;entryDy=0;labelBackgroundColor=none;fontColor=default;" parent="LW2s9WkSSxJKJhXJ1fTc-1" source="RAFy6ga0Xb_pRNfzBWMS-102" target="LW2s9WkSSxJKJhXJ1fTc-110" edge="1">
          <mxGeometry relative="1" as="geometry">
            <mxPoint x="-1060" y="148.99999999999977" as="targetPoint" />
            <mxPoint x="-1173" y="74" as="sourcePoint" />
          </mxGeometry>
        </mxCell>
        <mxCell id="jnl5u2AOaFAPthQatXR9-2" value="&lt;span style=&quot;font-size: 14px;&quot;&gt;&lt;b&gt;DFD-1.0 Customer Management&lt;/b&gt;&lt;/span&gt;" style="rounded=1;whiteSpace=wrap;html=1;arcSize=26;labelBackgroundColor=none;fillColor=#76608a;fontColor=#ffffff;strokeColor=#432D57;" parent="LW2s9WkSSxJKJhXJ1fTc-1" vertex="1">
          <mxGeometry x="-1605" y="-1080" width="170" height="40" as="geometry" />
        </mxCell>
        <mxCell id="RAFy6ga0Xb_pRNfzBWMS-0" value="" style="rounded=1;whiteSpace=wrap;html=1;arcSize=3;opacity=70;labelBackgroundColor=none;" parent="LW2s9WkSSxJKJhXJ1fTc-1" vertex="1">
          <mxGeometry x="-1640" y="259" width="1580" height="260" as="geometry" />
        </mxCell>
        <mxCell id="RAFy6ga0Xb_pRNfzBWMS-1" value="" style="group;labelBackgroundColor=none;rounded=1;" parent="LW2s9WkSSxJKJhXJ1fTc-1" vertex="1" connectable="0">
          <mxGeometry x="-976" y="399" width="160" height="40" as="geometry" />
        </mxCell>
        <object label="dashboard_data" placeholders="1" id="RAFy6ga0Xb_pRNfzBWMS-2">
          <mxCell style="html=1;dashed=0;whiteSpace=wrap;shape=mxgraph.dfd.dataStoreID;align=center;spacingLeft=3;points=[[0,0],[0.5,0],[1,0],[0,0.5],[1,0.5],[0,1],[0.5,1],[1,1]];rounded=1;verticalAlign=middle;fontFamily=Helvetica;fontSize=12;strokeWidth=2;labelBackgroundColor=none;" parent="RAFy6ga0Xb_pRNfzBWMS-1" vertex="1">
            <mxGeometry width="160" height="40" as="geometry" />
          </mxCell>
        </object>
        <mxCell id="RAFy6ga0Xb_pRNfzBWMS-3" value="&lt;b&gt;D&lt;/b&gt;" style="rounded=1;whiteSpace=wrap;html=1;fillColor=none;labelBackgroundColor=none;" parent="RAFy6ga0Xb_pRNfzBWMS-1" vertex="1">
          <mxGeometry width="30" height="40" as="geometry" />
        </mxCell>
        <mxCell id="RAFy6ga0Xb_pRNfzBWMS-9" value="4.1" style="swimlane;fontStyle=1;childLayout=stackLayout;horizontal=1;startSize=40;horizontalStack=0;resizeParent=1;resizeParentMax=0;resizeLast=0;collapsible=0;marginBottom=0;swimlaneFillColor=#8FBDFF;rounded=1;strokeWidth=2;labelBackgroundColor=none;" parent="LW2s9WkSSxJKJhXJ1fTc-1" vertex="1">
          <mxGeometry x="-690" y="369" width="170" height="100" as="geometry" />
        </mxCell>
        <mxCell id="RAFy6ga0Xb_pRNfzBWMS-10" value="&lt;span style=&quot;text-wrap: nowrap;&quot;&gt;&lt;b&gt;Построение витрин&lt;/b&gt;&lt;/span&gt;" style="rounded=1;whiteSpace=wrap;html=1;opacity=0;align=center;verticalAlign=middle;fontFamily=Helvetica;fontSize=12;labelBackgroundColor=none;" parent="RAFy6ga0Xb_pRNfzBWMS-9" vertex="1">
          <mxGeometry y="40" width="170" height="60" as="geometry" />
        </mxCell>
        <mxCell id="RAFy6ga0Xb_pRNfzBWMS-11" style="edgeStyle=orthogonalEdgeStyle;rounded=1;orthogonalLoop=1;jettySize=auto;html=1;exitX=1;exitY=0.5;exitDx=0;exitDy=0;entryX=0;entryY=0.5;entryDx=0;entryDy=0;labelBackgroundColor=none;fontColor=default;" parent="LW2s9WkSSxJKJhXJ1fTc-1" source="RAFy6ga0Xb_pRNfzBWMS-2" target="RAFy6ga0Xb_pRNfzBWMS-9" edge="1">
          <mxGeometry relative="1" as="geometry" />
        </mxCell>
        <mxCell id="RAFy6ga0Xb_pRNfzBWMS-12" value="Аналитика" style="edgeLabel;html=1;align=center;verticalAlign=middle;resizable=0;points=[];labelBackgroundColor=none;rounded=1;" parent="RAFy6ga0Xb_pRNfzBWMS-11" vertex="1" connectable="0">
          <mxGeometry x="0.1624" y="-2" relative="1" as="geometry">
            <mxPoint x="-17" y="-17" as="offset" />
          </mxGeometry>
        </mxCell>
        <mxCell id="RAFy6ga0Xb_pRNfzBWMS-16" style="edgeStyle=orthogonalEdgeStyle;rounded=1;orthogonalLoop=1;jettySize=auto;html=1;exitX=1;exitY=0.25;exitDx=0;exitDy=0;entryX=0.5;entryY=1;entryDx=0;entryDy=0;labelBackgroundColor=none;fontColor=default;" parent="LW2s9WkSSxJKJhXJ1fTc-1" source="RAFy6ga0Xb_pRNfzBWMS-10" target="LW2s9WkSSxJKJhXJ1fTc-122" edge="1">
          <mxGeometry relative="1" as="geometry">
            <mxPoint x="-420" y="424" as="targetPoint" />
          </mxGeometry>
        </mxCell>
        <mxCell id="RAFy6ga0Xb_pRNfzBWMS-33" value="&lt;span style=&quot;font-size: 14px;&quot;&gt;&lt;b&gt;DFD-4.0 BI&lt;/b&gt;&lt;/span&gt;" style="rounded=1;whiteSpace=wrap;html=1;arcSize=26;labelBackgroundColor=none;fillColor=#76608a;strokeColor=#432D57;fontColor=#ffffff;" parent="LW2s9WkSSxJKJhXJ1fTc-1" vertex="1">
          <mxGeometry x="-1605" y="283" width="170" height="40" as="geometry" />
        </mxCell>
        <mxCell id="RAFy6ga0Xb_pRNfzBWMS-34" value="" style="rounded=1;whiteSpace=wrap;html=1;arcSize=3;opacity=70;labelBackgroundColor=none;" parent="LW2s9WkSSxJKJhXJ1fTc-1" vertex="1">
          <mxGeometry x="-1640" y="547" width="1580" height="202" as="geometry" />
        </mxCell>
        <mxCell id="RAFy6ga0Xb_pRNfzBWMS-35" value="" style="group;labelBackgroundColor=none;rounded=1;" parent="LW2s9WkSSxJKJhXJ1fTc-1" vertex="1" connectable="0">
          <mxGeometry x="-976" y="611" width="160" height="40" as="geometry" />
        </mxCell>
        <object label="employee_data" placeholders="1" id="RAFy6ga0Xb_pRNfzBWMS-36">
          <mxCell style="html=1;dashed=0;whiteSpace=wrap;shape=mxgraph.dfd.dataStoreID;align=center;spacingLeft=3;points=[[0,0],[0.5,0],[1,0],[0,0.5],[1,0.5],[0,1],[0.5,1],[1,1]];rounded=1;verticalAlign=middle;fontFamily=Helvetica;fontSize=12;strokeWidth=2;labelBackgroundColor=none;" parent="RAFy6ga0Xb_pRNfzBWMS-35" vertex="1">
            <mxGeometry width="160" height="40" as="geometry" />
          </mxCell>
        </object>
        <mxCell id="RAFy6ga0Xb_pRNfzBWMS-37" value="&lt;b&gt;D&lt;/b&gt;" style="rounded=1;whiteSpace=wrap;html=1;fillColor=none;labelBackgroundColor=none;" parent="RAFy6ga0Xb_pRNfzBWMS-35" vertex="1">
          <mxGeometry width="30" height="40" as="geometry" />
        </mxCell>
        <mxCell id="RAFy6ga0Xb_pRNfzBWMS-43" value="5.0" style="swimlane;fontStyle=1;childLayout=stackLayout;horizontal=1;startSize=40;horizontalStack=0;resizeParent=1;resizeParentMax=0;resizeLast=0;collapsible=0;marginBottom=0;swimlaneFillColor=#8FBDFF;rounded=1;strokeWidth=2;labelBackgroundColor=none;" parent="LW2s9WkSSxJKJhXJ1fTc-1" vertex="1">
          <mxGeometry x="-690" y="581" width="170" height="100" as="geometry" />
        </mxCell>
        <mxCell id="RAFy6ga0Xb_pRNfzBWMS-44" value="&lt;span style=&quot;text-wrap: nowrap;&quot;&gt;&lt;b style=&quot;&quot;&gt;&lt;font style=&quot;font-size: 12px;&quot;&gt;Регистрация нового&lt;br&gt;сотрудника&lt;/font&gt;&lt;/b&gt;&lt;/span&gt;" style="rounded=1;whiteSpace=wrap;html=1;opacity=0;align=center;verticalAlign=middle;fontFamily=Helvetica;fontSize=12;labelBackgroundColor=none;" parent="RAFy6ga0Xb_pRNfzBWMS-43" vertex="1">
          <mxGeometry y="40" width="170" height="60" as="geometry" />
        </mxCell>
        <mxCell id="RAFy6ga0Xb_pRNfzBWMS-45" style="edgeStyle=orthogonalEdgeStyle;rounded=1;orthogonalLoop=1;jettySize=auto;html=1;exitX=1;exitY=0.5;exitDx=0;exitDy=0;entryX=0;entryY=0.5;entryDx=0;entryDy=0;labelBackgroundColor=none;fontColor=default;startArrow=classic;startFill=1;endArrow=none;endFill=0;" parent="LW2s9WkSSxJKJhXJ1fTc-1" source="RAFy6ga0Xb_pRNfzBWMS-36" target="RAFy6ga0Xb_pRNfzBWMS-43" edge="1">
          <mxGeometry relative="1" as="geometry" />
        </mxCell>
        <mxCell id="RAFy6ga0Xb_pRNfzBWMS-46" value="Данные&lt;br&gt;сотрудника" style="edgeLabel;html=1;align=center;verticalAlign=middle;resizable=0;points=[];labelBackgroundColor=none;rounded=1;" parent="RAFy6ga0Xb_pRNfzBWMS-45" vertex="1" connectable="0">
          <mxGeometry x="0.1624" y="-2" relative="1" as="geometry">
            <mxPoint x="-18" y="-22" as="offset" />
          </mxGeometry>
        </mxCell>
        <mxCell id="RAFy6ga0Xb_pRNfzBWMS-50" style="edgeStyle=orthogonalEdgeStyle;rounded=1;orthogonalLoop=1;jettySize=auto;html=1;exitX=1;exitY=0.25;exitDx=0;exitDy=0;entryX=0;entryY=0.5;entryDx=0;entryDy=0;labelBackgroundColor=none;fontColor=default;startArrow=classic;startFill=1;endArrow=none;endFill=0;" parent="LW2s9WkSSxJKJhXJ1fTc-1" source="RAFy6ga0Xb_pRNfzBWMS-44" target="RAFy6ga0Xb_pRNfzBWMS-49" edge="1">
          <mxGeometry relative="1" as="geometry" />
        </mxCell>
        <mxCell id="RAFy6ga0Xb_pRNfzBWMS-67" value="&lt;span style=&quot;font-size: 14px;&quot;&gt;&lt;b&gt;DFD-5.0 Employee&lt;/b&gt;&lt;/span&gt;" style="rounded=1;whiteSpace=wrap;html=1;arcSize=26;labelBackgroundColor=none;fillColor=#76608a;strokeColor=#432D57;fontColor=#ffffff;" parent="LW2s9WkSSxJKJhXJ1fTc-1" vertex="1">
          <mxGeometry x="-1605" y="571" width="170" height="40" as="geometry" />
        </mxCell>
        <mxCell id="RAFy6ga0Xb_pRNfzBWMS-68" value="" style="rounded=1;whiteSpace=wrap;html=1;arcSize=3;opacity=70;labelBackgroundColor=none;" parent="LW2s9WkSSxJKJhXJ1fTc-1" vertex="1">
          <mxGeometry x="-1640" y="779" width="1580" height="230" as="geometry" />
        </mxCell>
        <mxCell id="RAFy6ga0Xb_pRNfzBWMS-69" value="" style="group;labelBackgroundColor=none;rounded=1;" parent="LW2s9WkSSxJKJhXJ1fTc-1" vertex="1" connectable="0">
          <mxGeometry x="-973" y="873" width="160" height="40" as="geometry" />
        </mxCell>
        <object label="inventory_data" placeholders="1" id="RAFy6ga0Xb_pRNfzBWMS-70">
          <mxCell style="html=1;dashed=0;whiteSpace=wrap;shape=mxgraph.dfd.dataStoreID;align=center;spacingLeft=3;points=[[0,0],[0.5,0],[1,0],[0,0.5],[1,0.5],[0,1],[0.5,1],[1,1]];rounded=1;verticalAlign=middle;fontFamily=Helvetica;fontSize=12;strokeWidth=2;labelBackgroundColor=none;" parent="RAFy6ga0Xb_pRNfzBWMS-69" vertex="1">
            <mxGeometry width="160" height="40" as="geometry" />
          </mxCell>
        </object>
        <mxCell id="RAFy6ga0Xb_pRNfzBWMS-71" value="&lt;b&gt;D&lt;/b&gt;" style="rounded=1;whiteSpace=wrap;html=1;fillColor=none;labelBackgroundColor=none;" parent="RAFy6ga0Xb_pRNfzBWMS-69" vertex="1">
          <mxGeometry width="30" height="40" as="geometry" />
        </mxCell>
        <mxCell id="RAFy6ga0Xb_pRNfzBWMS-77" value="6.0" style="swimlane;fontStyle=1;childLayout=stackLayout;horizontal=1;startSize=40;horizontalStack=0;resizeParent=1;resizeParentMax=0;resizeLast=0;collapsible=0;marginBottom=0;swimlaneFillColor=#8FBDFF;rounded=1;strokeWidth=2;labelBackgroundColor=none;" parent="LW2s9WkSSxJKJhXJ1fTc-1" vertex="1">
          <mxGeometry x="-687" y="843" width="170" height="100" as="geometry" />
        </mxCell>
        <mxCell id="RAFy6ga0Xb_pRNfzBWMS-78" value="&lt;span style=&quot;text-wrap: nowrap;&quot;&gt;&lt;b&gt;Проведение&lt;br&gt;инвентаризации&lt;/b&gt;&lt;/span&gt;" style="rounded=1;whiteSpace=wrap;html=1;opacity=0;align=center;verticalAlign=middle;fontFamily=Helvetica;fontSize=12;labelBackgroundColor=none;" parent="RAFy6ga0Xb_pRNfzBWMS-77" vertex="1">
          <mxGeometry y="40" width="170" height="60" as="geometry" />
        </mxCell>
        <mxCell id="RAFy6ga0Xb_pRNfzBWMS-79" style="edgeStyle=orthogonalEdgeStyle;rounded=1;orthogonalLoop=1;jettySize=auto;html=1;exitX=1;exitY=0.5;exitDx=0;exitDy=0;entryX=0;entryY=0.5;entryDx=0;entryDy=0;labelBackgroundColor=none;fontColor=default;startArrow=classic;startFill=1;endArrow=none;endFill=0;" parent="LW2s9WkSSxJKJhXJ1fTc-1" source="RAFy6ga0Xb_pRNfzBWMS-70" target="RAFy6ga0Xb_pRNfzBWMS-77" edge="1">
          <mxGeometry relative="1" as="geometry" />
        </mxCell>
        <mxCell id="RAFy6ga0Xb_pRNfzBWMS-80" value="Данные&lt;br&gt;инвентаризации" style="edgeLabel;html=1;align=center;verticalAlign=middle;resizable=0;points=[];labelBackgroundColor=none;rounded=1;" parent="RAFy6ga0Xb_pRNfzBWMS-79" vertex="1" connectable="0">
          <mxGeometry x="0.1624" y="-2" relative="1" as="geometry">
            <mxPoint x="-21" y="-22" as="offset" />
          </mxGeometry>
        </mxCell>
        <mxCell id="RAFy6ga0Xb_pRNfzBWMS-83" value="&lt;b&gt;EMPLOYEE&lt;/b&gt;" style="html=1;dashed=0;whiteSpace=wrap;rounded=1;strokeWidth=2;labelBackgroundColor=none;" parent="LW2s9WkSSxJKJhXJ1fTc-1" vertex="1">
          <mxGeometry x="-419" y="878" width="160" height="40" as="geometry" />
        </mxCell>
        <mxCell id="RAFy6ga0Xb_pRNfzBWMS-84" style="edgeStyle=orthogonalEdgeStyle;rounded=1;orthogonalLoop=1;jettySize=auto;html=1;exitX=1;exitY=0.25;exitDx=0;exitDy=0;entryX=0;entryY=0.5;entryDx=0;entryDy=0;labelBackgroundColor=none;fontColor=default;startArrow=classic;startFill=1;endArrow=none;endFill=0;" parent="LW2s9WkSSxJKJhXJ1fTc-1" source="RAFy6ga0Xb_pRNfzBWMS-78" target="RAFy6ga0Xb_pRNfzBWMS-83" edge="1">
          <mxGeometry relative="1" as="geometry" />
        </mxCell>
        <mxCell id="RAFy6ga0Xb_pRNfzBWMS-101" value="&lt;span style=&quot;font-size: 14px;&quot;&gt;&lt;b&gt;DFD-6.0 Inventory&lt;/b&gt;&lt;/span&gt;" style="rounded=1;whiteSpace=wrap;html=1;arcSize=26;labelBackgroundColor=none;fillColor=#76608a;strokeColor=#432D57;fontColor=#ffffff;" parent="LW2s9WkSSxJKJhXJ1fTc-1" vertex="1">
          <mxGeometry x="-1605" y="803" width="170" height="40" as="geometry" />
        </mxCell>
        <mxCell id="RAFy6ga0Xb_pRNfzBWMS-102" value="&lt;b&gt;FINTECH COMPANY&lt;/b&gt;" style="html=1;dashed=0;whiteSpace=wrap;rounded=1;strokeWidth=3;labelBackgroundColor=none;fillColor=default;fontColor=default;strokeColor=#FF3333;" parent="LW2s9WkSSxJKJhXJ1fTc-1" vertex="1">
          <mxGeometry x="-1600" y="129" width="160" height="40" as="geometry" />
        </mxCell>
        <mxCell id="RAFy6ga0Xb_pRNfzBWMS-106" style="edgeStyle=orthogonalEdgeStyle;rounded=1;orthogonalLoop=1;jettySize=auto;html=1;exitX=0;exitY=0.5;exitDx=0;exitDy=0;entryX=1;entryY=0.5;entryDx=0;entryDy=0;labelBackgroundColor=none;fontColor=default;" parent="LW2s9WkSSxJKJhXJ1fTc-1" source="LW2s9WkSSxJKJhXJ1fTc-81" target="RAFy6ga0Xb_pRNfzBWMS-108" edge="1">
          <mxGeometry relative="1" as="geometry">
            <mxPoint x="-1118" y="-280.06" as="sourcePoint" />
            <mxPoint x="-1520" y="-370" as="targetPoint" />
          </mxGeometry>
        </mxCell>
        <mxCell id="RAFy6ga0Xb_pRNfzBWMS-107" value="Результаты исследования" style="edgeLabel;html=1;align=center;verticalAlign=middle;resizable=0;points=[];labelBackgroundColor=none;rounded=1;" parent="RAFy6ga0Xb_pRNfzBWMS-106" vertex="1" connectable="0">
          <mxGeometry x="-0.469" y="-2" relative="1" as="geometry">
            <mxPoint x="-11" y="-402" as="offset" />
          </mxGeometry>
        </mxCell>
        <mxCell id="RAFy6ga0Xb_pRNfzBWMS-104" style="edgeStyle=orthogonalEdgeStyle;rounded=1;orthogonalLoop=1;jettySize=auto;html=1;exitX=0;exitY=0.5;exitDx=0;exitDy=0;entryX=1;entryY=0.5;entryDx=0;entryDy=0;labelBackgroundColor=none;fontColor=default;" parent="LW2s9WkSSxJKJhXJ1fTc-1" source="LW2s9WkSSxJKJhXJ1fTc-81" target="RAFy6ga0Xb_pRNfzBWMS-103" edge="1">
          <mxGeometry relative="1" as="geometry">
            <mxPoint x="-1213.35" y="-528" as="sourcePoint" />
            <mxPoint x="-1410.35" y="-304" as="targetPoint" />
          </mxGeometry>
        </mxCell>
        <mxCell id="tc6Am-N3KZkTbopPARd8-1" value="Данные исследований" style="edgeLabel;html=1;align=center;verticalAlign=middle;resizable=0;points=[];" vertex="1" connectable="0" parent="RAFy6ga0Xb_pRNfzBWMS-104">
          <mxGeometry x="0.0523" y="1" relative="1" as="geometry">
            <mxPoint x="1" as="offset" />
          </mxGeometry>
        </mxCell>
        <mxCell id="tc6Am-N3KZkTbopPARd8-4" style="edgeStyle=orthogonalEdgeStyle;rounded=1;orthogonalLoop=1;jettySize=auto;html=1;exitX=0.5;exitY=1;exitDx=0;exitDy=0;entryX=0;entryY=0.5;entryDx=0;entryDy=0;" edge="1" parent="LW2s9WkSSxJKJhXJ1fTc-1" source="RAFy6ga0Xb_pRNfzBWMS-103" target="tc6Am-N3KZkTbopPARd8-3">
          <mxGeometry relative="1" as="geometry" />
        </mxCell>
        <mxCell id="tc6Am-N3KZkTbopPARd8-5" value="Рекомендации" style="edgeLabel;html=1;align=center;verticalAlign=middle;resizable=0;points=[];" vertex="1" connectable="0" parent="tc6Am-N3KZkTbopPARd8-4">
          <mxGeometry x="0.4971" y="1" relative="1" as="geometry">
            <mxPoint as="offset" />
          </mxGeometry>
        </mxCell>
        <mxCell id="tc6Am-N3KZkTbopPARd8-19" style="edgeStyle=orthogonalEdgeStyle;rounded=1;orthogonalLoop=1;jettySize=auto;html=1;exitX=0.5;exitY=1;exitDx=0;exitDy=0;entryX=0;entryY=0.25;entryDx=0;entryDy=0;fillColor=#1ba1e2;strokeColor=#006EAF;strokeWidth=3;" edge="1" parent="LW2s9WkSSxJKJhXJ1fTc-1" source="RAFy6ga0Xb_pRNfzBWMS-108" target="tc6Am-N3KZkTbopPARd8-13">
          <mxGeometry relative="1" as="geometry" />
        </mxCell>
        <mxCell id="RAFy6ga0Xb_pRNfzBWMS-108" value="&lt;b&gt;CUSTOMER&lt;/b&gt;" style="html=1;dashed=0;whiteSpace=wrap;rounded=1;strokeWidth=2;labelBackgroundColor=none;" parent="LW2s9WkSSxJKJhXJ1fTc-1" vertex="1">
          <mxGeometry x="-1605" y="-890" width="160" height="40" as="geometry" />
        </mxCell>
        <mxCell id="tc6Am-N3KZkTbopPARd8-0" value="Учетные данные&amp;nbsp;пациента" style="edgeStyle=orthogonalEdgeStyle;rounded=1;orthogonalLoop=1;jettySize=auto;html=1;exitX=0.5;exitY=1;exitDx=0;exitDy=0;entryX=1;entryY=0.25;entryDx=0;entryDy=0;labelBackgroundColor=none;fontColor=default;" edge="1" parent="LW2s9WkSSxJKJhXJ1fTc-1" source="LW2s9WkSSxJKJhXJ1fTc-127" target="LW2s9WkSSxJKJhXJ1fTc-67">
          <mxGeometry relative="1" as="geometry">
            <mxPoint x="-806" y="-960" as="sourcePoint" />
            <mxPoint x="-324" y="-724" as="targetPoint" />
          </mxGeometry>
        </mxCell>
        <object label="medical_record" placeholders="1" id="LW2s9WkSSxJKJhXJ1fTc-95">
          <mxCell style="html=1;dashed=0;whiteSpace=wrap;shape=mxgraph.dfd.dataStoreID;align=center;spacingLeft=3;points=[[0,0],[0.5,0],[1,0],[0,0.5],[1,0.5],[0,1],[0.5,1],[1,1]];rounded=1;verticalAlign=middle;fontFamily=Helvetica;fontSize=12;strokeWidth=2;labelBackgroundColor=none;" parent="LW2s9WkSSxJKJhXJ1fTc-1" vertex="1">
            <mxGeometry x="-976" y="-635" width="160" height="40" as="geometry" />
          </mxCell>
        </object>
        <mxCell id="LW2s9WkSSxJKJhXJ1fTc-96" value="&lt;b&gt;D&lt;/b&gt;" style="rounded=1;whiteSpace=wrap;html=1;fillColor=none;labelBackgroundColor=none;" parent="LW2s9WkSSxJKJhXJ1fTc-1" vertex="1">
          <mxGeometry x="-976" y="-636" width="30" height="40" as="geometry" />
        </mxCell>
        <mxCell id="tc6Am-N3KZkTbopPARd8-2" value="2.2" style="swimlane;fontStyle=1;childLayout=stackLayout;horizontal=1;startSize=40;horizontalStack=0;resizeParent=1;resizeParentMax=0;resizeLast=0;collapsible=0;marginBottom=0;swimlaneFillColor=#8FBDFF;rounded=1;strokeWidth=2;labelBackgroundColor=none;" vertex="1" parent="LW2s9WkSSxJKJhXJ1fTc-1">
          <mxGeometry x="-1257.57" y="-320" width="170" height="100" as="geometry" />
        </mxCell>
        <mxCell id="tc6Am-N3KZkTbopPARd8-3" value="&lt;span style=&quot;text-wrap: nowrap;&quot;&gt;&lt;b&gt;Передача рекомендаций и&lt;br&gt;результатов AI-аналитики&lt;/b&gt;&lt;/span&gt;" style="rounded=1;whiteSpace=wrap;html=1;opacity=0;align=center;verticalAlign=middle;fontFamily=Helvetica;fontSize=12;labelBackgroundColor=none;" vertex="1" parent="tc6Am-N3KZkTbopPARd8-2">
          <mxGeometry y="40" width="170" height="60" as="geometry" />
        </mxCell>
        <mxCell id="tc6Am-N3KZkTbopPARd8-9" style="edgeStyle=orthogonalEdgeStyle;rounded=1;orthogonalLoop=1;jettySize=auto;html=1;exitX=1;exitY=0.5;exitDx=0;exitDy=0;entryX=0.5;entryY=1;entryDx=0;entryDy=0;" edge="1" parent="LW2s9WkSSxJKJhXJ1fTc-1" source="tc6Am-N3KZkTbopPARd8-6" target="LW2s9WkSSxJKJhXJ1fTc-59">
          <mxGeometry relative="1" as="geometry" />
        </mxCell>
        <mxCell id="tc6Am-N3KZkTbopPARd8-11" value="Рекомендации" style="edgeLabel;html=1;align=center;verticalAlign=middle;resizable=0;points=[];" vertex="1" connectable="0" parent="tc6Am-N3KZkTbopPARd8-9">
          <mxGeometry x="0.0361" y="-2" relative="1" as="geometry">
            <mxPoint y="1" as="offset" />
          </mxGeometry>
        </mxCell>
        <object label="ai_analytics_data" placeholders="1" id="tc6Am-N3KZkTbopPARd8-6">
          <mxCell style="html=1;dashed=0;whiteSpace=wrap;shape=mxgraph.dfd.dataStoreID;align=center;spacingLeft=3;points=[[0,0],[0.5,0],[1,0],[0,0.5],[1,0.5],[0,1],[0.5,1],[1,1]];rounded=1;verticalAlign=middle;fontFamily=Helvetica;fontSize=12;strokeWidth=2;labelBackgroundColor=none;" vertex="1" parent="LW2s9WkSSxJKJhXJ1fTc-1">
            <mxGeometry x="-976" y="-270" width="160" height="40" as="geometry" />
          </mxCell>
        </object>
        <mxCell id="tc6Am-N3KZkTbopPARd8-7" value="&lt;b&gt;D&lt;/b&gt;" style="rounded=1;whiteSpace=wrap;html=1;fillColor=none;labelBackgroundColor=none;" vertex="1" parent="LW2s9WkSSxJKJhXJ1fTc-1">
          <mxGeometry x="-976" y="-270" width="30" height="40" as="geometry" />
        </mxCell>
        <mxCell id="tc6Am-N3KZkTbopPARd8-8" style="edgeStyle=orthogonalEdgeStyle;rounded=1;orthogonalLoop=1;jettySize=auto;html=1;exitX=1;exitY=0.5;exitDx=0;exitDy=0;entryX=0;entryY=0.5;entryDx=0;entryDy=0;" edge="1" parent="LW2s9WkSSxJKJhXJ1fTc-1" source="tc6Am-N3KZkTbopPARd8-3" target="tc6Am-N3KZkTbopPARd8-7">
          <mxGeometry relative="1" as="geometry" />
        </mxCell>
        <mxCell id="tc6Am-N3KZkTbopPARd8-12" value="3.0" style="swimlane;fontStyle=1;childLayout=stackLayout;horizontal=1;startSize=40;horizontalStack=0;resizeParent=1;resizeParentMax=0;resizeLast=0;collapsible=0;marginBottom=0;swimlaneFillColor=#8FBDFF;rounded=1;strokeWidth=2;labelBackgroundColor=none;" vertex="1" parent="LW2s9WkSSxJKJhXJ1fTc-1">
          <mxGeometry x="-1257.57" y="-71" width="170" height="100" as="geometry" />
        </mxCell>
        <mxCell id="tc6Am-N3KZkTbopPARd8-13" value="&lt;b&gt;Заказ финансовой услуги&lt;/b&gt;" style="rounded=1;whiteSpace=wrap;html=1;opacity=0;labelBackgroundColor=none;" vertex="1" parent="tc6Am-N3KZkTbopPARd8-12">
          <mxGeometry y="40" width="170" height="60" as="geometry" />
        </mxCell>
        <mxCell id="tc6Am-N3KZkTbopPARd8-15" value="" style="group;labelBackgroundColor=none;rounded=1;" vertex="1" connectable="0" parent="LW2s9WkSSxJKJhXJ1fTc-1">
          <mxGeometry x="-980" y="-36" width="160" height="40" as="geometry" />
        </mxCell>
        <object label="customer_data" placeholders="1" id="tc6Am-N3KZkTbopPARd8-16">
          <mxCell style="html=1;dashed=0;whiteSpace=wrap;shape=mxgraph.dfd.dataStoreID;align=center;spacingLeft=3;points=[[0,0],[0.5,0],[1,0],[0,0.5],[1,0.5],[0,1],[0.5,1],[1,1]];rounded=1;verticalAlign=middle;fontFamily=Helvetica;fontSize=12;strokeWidth=2;labelBackgroundColor=none;" vertex="1" parent="tc6Am-N3KZkTbopPARd8-15">
            <mxGeometry width="160" height="40" as="geometry" />
          </mxCell>
        </object>
        <mxCell id="tc6Am-N3KZkTbopPARd8-17" value="&lt;b&gt;D&lt;/b&gt;" style="rounded=1;whiteSpace=wrap;html=1;fillColor=none;labelBackgroundColor=none;" vertex="1" parent="tc6Am-N3KZkTbopPARd8-15">
          <mxGeometry width="30" height="40" as="geometry" />
        </mxCell>
        <mxCell id="tc6Am-N3KZkTbopPARd8-18" style="edgeStyle=orthogonalEdgeStyle;rounded=1;orthogonalLoop=1;jettySize=auto;html=1;exitX=1;exitY=0.25;exitDx=0;exitDy=0;entryX=0;entryY=0.5;entryDx=0;entryDy=0;" edge="1" parent="LW2s9WkSSxJKJhXJ1fTc-1" source="tc6Am-N3KZkTbopPARd8-13" target="tc6Am-N3KZkTbopPARd8-17">
          <mxGeometry relative="1" as="geometry" />
        </mxCell>
        <mxCell id="jnl5u2AOaFAPthQatXR9-6" value="&lt;span style=&quot;font-size: 14px;&quot;&gt;&lt;b&gt;DFD-3.0 Finance&lt;/b&gt;&lt;/span&gt;" style="rounded=1;whiteSpace=wrap;html=1;arcSize=26;labelBackgroundColor=none;fillColor=#76608a;strokeColor=#432D57;fontColor=#ffffff;" parent="LW2s9WkSSxJKJhXJ1fTc-1" vertex="1">
          <mxGeometry x="-1605" y="-111" width="170" height="40" as="geometry" />
        </mxCell>
        <mxCell id="jnl5u2AOaFAPthQatXR9-4" value="&lt;span style=&quot;font-size: 14px;&quot;&gt;&lt;b&gt;DFD-2.0 Medical record&lt;/b&gt;&lt;/span&gt;" style="rounded=1;whiteSpace=wrap;html=1;arcSize=26;labelBackgroundColor=none;fillColor=#76608a;strokeColor=#432D57;fontColor=#ffffff;" parent="LW2s9WkSSxJKJhXJ1fTc-1" vertex="1">
          <mxGeometry x="-1605" y="-750" width="170" height="40" as="geometry" />
        </mxCell>
        <mxCell id="RAFy6ga0Xb_pRNfzBWMS-103" value="&lt;b&gt;AI-SERVICES&lt;/b&gt;" style="html=1;dashed=0;whiteSpace=wrap;rounded=1;strokeWidth=3;labelBackgroundColor=none;fillColor=default;strokeColor=#FF3333;fontColor=default;" parent="LW2s9WkSSxJKJhXJ1fTc-1" vertex="1">
          <mxGeometry x="-1605" y="-416" width="160" height="40" as="geometry" />
        </mxCell>
        <mxCell id="tc6Am-N3KZkTbopPARd8-20" style="edgeStyle=orthogonalEdgeStyle;rounded=1;orthogonalLoop=1;jettySize=auto;html=1;exitX=0.5;exitY=1;exitDx=0;exitDy=0;entryX=0.5;entryY=0;entryDx=0;entryDy=0;" edge="1" parent="LW2s9WkSSxJKJhXJ1fTc-1" source="LW2s9WkSSxJKJhXJ1fTc-117" target="RAFy6ga0Xb_pRNfzBWMS-102">
          <mxGeometry relative="1" as="geometry" />
        </mxCell>
        <mxCell id="tc6Am-N3KZkTbopPARd8-21" style="edgeStyle=orthogonalEdgeStyle;rounded=1;orthogonalLoop=1;jettySize=auto;html=1;exitX=1;exitY=0.5;exitDx=0;exitDy=0;entryX=0;entryY=0.5;entryDx=0;entryDy=0;" edge="1" parent="LW2s9WkSSxJKJhXJ1fTc-1" source="LW2s9WkSSxJKJhXJ1fTc-109" target="LW2s9WkSSxJKJhXJ1fTc-122">
          <mxGeometry relative="1" as="geometry" />
        </mxCell>
        <mxCell id="tc6Am-N3KZkTbopPARd8-22" value="4.0" style="swimlane;fontStyle=1;childLayout=stackLayout;horizontal=1;startSize=40;horizontalStack=0;resizeParent=1;resizeParentMax=0;resizeLast=0;collapsible=0;marginBottom=0;swimlaneFillColor=#8FBDFF;rounded=1;strokeWidth=2;labelBackgroundColor=none;" vertex="1" parent="LW2s9WkSSxJKJhXJ1fTc-1">
          <mxGeometry x="-1257.5700000000002" y="364" width="170" height="100" as="geometry" />
        </mxCell>
        <mxCell id="tc6Am-N3KZkTbopPARd8-23" value="&lt;span style=&quot;text-wrap: nowrap;&quot;&gt;&lt;b&gt;ETL&lt;/b&gt;&lt;/span&gt;" style="rounded=1;whiteSpace=wrap;html=1;opacity=0;align=center;verticalAlign=middle;fontFamily=Helvetica;fontSize=12;labelBackgroundColor=none;" vertex="1" parent="tc6Am-N3KZkTbopPARd8-22">
          <mxGeometry y="40" width="170" height="60" as="geometry" />
        </mxCell>
        <mxCell id="tc6Am-N3KZkTbopPARd8-24" style="edgeStyle=orthogonalEdgeStyle;rounded=1;orthogonalLoop=1;jettySize=auto;html=1;exitX=1;exitY=0.5;exitDx=0;exitDy=0;entryX=0;entryY=0.25;entryDx=0;entryDy=0;" edge="1" parent="LW2s9WkSSxJKJhXJ1fTc-1" source="LW2s9WkSSxJKJhXJ1fTc-109" target="tc6Am-N3KZkTbopPARd8-23">
          <mxGeometry relative="1" as="geometry">
            <Array as="points">
              <mxPoint x="-796" y="149" />
              <mxPoint x="-796" y="287" />
              <mxPoint x="-1360" y="287" />
              <mxPoint x="-1360" y="419" />
            </Array>
          </mxGeometry>
        </mxCell>
        <mxCell id="tc6Am-N3KZkTbopPARd8-28" value="Данные по финтех услугам клиентов" style="edgeLabel;html=1;align=center;verticalAlign=middle;resizable=0;points=[];" vertex="1" connectable="0" parent="tc6Am-N3KZkTbopPARd8-24">
          <mxGeometry x="-0.2245" y="-5" relative="1" as="geometry">
            <mxPoint x="-111" y="1" as="offset" />
          </mxGeometry>
        </mxCell>
        <mxCell id="tc6Am-N3KZkTbopPARd8-25" style="edgeStyle=orthogonalEdgeStyle;rounded=1;orthogonalLoop=1;jettySize=auto;html=1;exitX=1;exitY=0.25;exitDx=0;exitDy=0;entryX=0;entryY=0.5;entryDx=0;entryDy=0;" edge="1" parent="LW2s9WkSSxJKJhXJ1fTc-1" source="tc6Am-N3KZkTbopPARd8-23" target="RAFy6ga0Xb_pRNfzBWMS-3">
          <mxGeometry relative="1" as="geometry" />
        </mxCell>
        <mxCell id="tc6Am-N3KZkTbopPARd8-26" style="edgeStyle=orthogonalEdgeStyle;rounded=1;orthogonalLoop=1;jettySize=auto;html=1;exitX=0;exitY=0.5;exitDx=0;exitDy=0;entryX=0;entryY=0.25;entryDx=0;entryDy=0;" edge="1" parent="LW2s9WkSSxJKJhXJ1fTc-1" source="RAFy6ga0Xb_pRNfzBWMS-37" target="tc6Am-N3KZkTbopPARd8-23">
          <mxGeometry relative="1" as="geometry">
            <Array as="points">
              <mxPoint x="-1360" y="631" />
              <mxPoint x="-1360" y="419" />
            </Array>
          </mxGeometry>
        </mxCell>
        <mxCell id="tc6Am-N3KZkTbopPARd8-27" value="Данные для отчетов по сотрудникам" style="edgeLabel;html=1;align=center;verticalAlign=middle;resizable=0;points=[];" vertex="1" connectable="0" parent="tc6Am-N3KZkTbopPARd8-26">
          <mxGeometry x="-0.755" y="1" relative="1" as="geometry">
            <mxPoint x="-58" y="-1" as="offset" />
          </mxGeometry>
        </mxCell>
        <mxCell id="tc6Am-N3KZkTbopPARd8-29" value="Данные&amp;nbsp;&lt;span style=&quot;background-color: rgb(27, 29, 30);&quot;&gt;инвентаризации&lt;/span&gt;" style="edgeStyle=orthogonalEdgeStyle;rounded=1;orthogonalLoop=1;jettySize=auto;html=1;exitX=0;exitY=0.5;exitDx=0;exitDy=0;entryX=0;entryY=0.25;entryDx=0;entryDy=0;" edge="1" parent="LW2s9WkSSxJKJhXJ1fTc-1" source="RAFy6ga0Xb_pRNfzBWMS-71" target="tc6Am-N3KZkTbopPARd8-23">
          <mxGeometry x="-0.6948" y="-14" relative="1" as="geometry">
            <Array as="points">
              <mxPoint x="-1360" y="893" />
              <mxPoint x="-1360" y="419" />
            </Array>
            <mxPoint as="offset" />
          </mxGeometry>
        </mxCell>
        <mxCell id="tc6Am-N3KZkTbopPARd8-30" style="edgeStyle=orthogonalEdgeStyle;rounded=1;orthogonalLoop=1;jettySize=auto;html=1;exitX=1;exitY=0.25;exitDx=0;exitDy=0;entryX=0.5;entryY=0;entryDx=0;entryDy=0;" edge="1" parent="LW2s9WkSSxJKJhXJ1fTc-1" source="RAFy6ga0Xb_pRNfzBWMS-10" target="RAFy6ga0Xb_pRNfzBWMS-49">
          <mxGeometry relative="1" as="geometry" />
        </mxCell>
        <mxCell id="tc6Am-N3KZkTbopPARd8-31" style="edgeStyle=orthogonalEdgeStyle;rounded=1;orthogonalLoop=1;jettySize=auto;html=1;exitX=1;exitY=0.25;exitDx=0;exitDy=0;entryX=0.5;entryY=0;entryDx=0;entryDy=0;strokeColor=#006EAF;fillColor=#1ba1e2;strokeWidth=3;" edge="1" parent="LW2s9WkSSxJKJhXJ1fTc-1" source="RAFy6ga0Xb_pRNfzBWMS-10" target="RAFy6ga0Xb_pRNfzBWMS-83">
          <mxGeometry relative="1" as="geometry" />
        </mxCell>
        <mxCell id="RAFy6ga0Xb_pRNfzBWMS-49" value="&lt;b&gt;EMPLOYEE&lt;/b&gt;" style="html=1;dashed=0;whiteSpace=wrap;rounded=1;strokeWidth=2;labelBackgroundColor=none;" parent="LW2s9WkSSxJKJhXJ1fTc-1" vertex="1">
          <mxGeometry x="-420" y="616" width="160" height="40" as="geometry" />
        </mxCell>
      </root>
    </mxGraphModel>
  </diagram>
</mxfile>
